<mxfile host="app.diagrams.net" modified="2023-04-18T03:40:38.019Z" agent="Mozilla/5.0 (Windows NT 10.0; Win64; x64) AppleWebKit/537.36 (KHTML, like Gecko) Chrome/112.0.0.0 Safari/537.36" etag="BJErur-Zxh80RFOPNQyz" version="21.1.7" type="github">
  <diagram name="第 1 页" id="98STv8WHStd1L3syZUIn">
    <mxGraphModel dx="1434" dy="764" grid="1" gridSize="10" guides="1" tooltips="1" connect="1" arrows="1" fold="1" page="1" pageScale="1" pageWidth="4681" pageHeight="3300" math="0" shadow="0">
      <root>
        <mxCell id="0" />
        <mxCell id="1" parent="0" />
        <mxCell id="phvqhUlvL6FENhMKcl7T-6" style="edgeStyle=orthogonalEdgeStyle;rounded=0;orthogonalLoop=1;jettySize=auto;html=1;exitX=0.5;exitY=1;exitDx=0;exitDy=0;entryX=0.5;entryY=0;entryDx=0;entryDy=0;" edge="1" parent="1" source="phvqhUlvL6FENhMKcl7T-1" target="phvqhUlvL6FENhMKcl7T-2">
          <mxGeometry relative="1" as="geometry" />
        </mxCell>
        <mxCell id="phvqhUlvL6FENhMKcl7T-1" value="登录" style="rounded=0;whiteSpace=wrap;html=1;" vertex="1" parent="1">
          <mxGeometry x="285" y="110" width="120" height="50" as="geometry" />
        </mxCell>
        <mxCell id="phvqhUlvL6FENhMKcl7T-7" style="edgeStyle=orthogonalEdgeStyle;rounded=0;orthogonalLoop=1;jettySize=auto;html=1;exitX=0;exitY=0.5;exitDx=0;exitDy=0;entryX=0;entryY=0.5;entryDx=0;entryDy=0;" edge="1" parent="1" source="phvqhUlvL6FENhMKcl7T-2" target="phvqhUlvL6FENhMKcl7T-5">
          <mxGeometry relative="1" as="geometry">
            <Array as="points">
              <mxPoint x="200" y="220" />
              <mxPoint x="200" y="470" />
            </Array>
          </mxGeometry>
        </mxCell>
        <mxCell id="phvqhUlvL6FENhMKcl7T-9" style="edgeStyle=orthogonalEdgeStyle;rounded=0;orthogonalLoop=1;jettySize=auto;html=1;exitX=0.5;exitY=1;exitDx=0;exitDy=0;" edge="1" parent="1" source="phvqhUlvL6FENhMKcl7T-2" target="phvqhUlvL6FENhMKcl7T-3">
          <mxGeometry relative="1" as="geometry" />
        </mxCell>
        <mxCell id="phvqhUlvL6FENhMKcl7T-2" value="是否特权网吧" style="rhombus;whiteSpace=wrap;html=1;" vertex="1" parent="1">
          <mxGeometry x="290" y="190" width="110" height="60" as="geometry" />
        </mxCell>
        <mxCell id="phvqhUlvL6FENhMKcl7T-11" style="edgeStyle=orthogonalEdgeStyle;rounded=0;orthogonalLoop=1;jettySize=auto;html=1;exitX=0.5;exitY=1;exitDx=0;exitDy=0;" edge="1" parent="1" source="phvqhUlvL6FENhMKcl7T-3" target="phvqhUlvL6FENhMKcl7T-4">
          <mxGeometry relative="1" as="geometry" />
        </mxCell>
        <mxCell id="phvqhUlvL6FENhMKcl7T-3" value="对比原网吧特权物品" style="whiteSpace=wrap;html=1;" vertex="1" parent="1">
          <mxGeometry x="277.5" y="280" width="135" height="40" as="geometry" />
        </mxCell>
        <mxCell id="phvqhUlvL6FENhMKcl7T-12" style="edgeStyle=orthogonalEdgeStyle;rounded=0;orthogonalLoop=1;jettySize=auto;html=1;exitX=0.5;exitY=1;exitDx=0;exitDy=0;" edge="1" parent="1" source="phvqhUlvL6FENhMKcl7T-4" target="phvqhUlvL6FENhMKcl7T-5">
          <mxGeometry relative="1" as="geometry" />
        </mxCell>
        <mxCell id="phvqhUlvL6FENhMKcl7T-4" value="删除不需要的&lt;br&gt;发送新增的" style="whiteSpace=wrap;html=1;" vertex="1" parent="1">
          <mxGeometry x="277.5" y="350" width="135" height="40" as="geometry" />
        </mxCell>
        <mxCell id="phvqhUlvL6FENhMKcl7T-5" value="后续逻辑" style="whiteSpace=wrap;html=1;" vertex="1" parent="1">
          <mxGeometry x="285" y="450" width="120" height="40" as="geometry" />
        </mxCell>
        <mxCell id="phvqhUlvL6FENhMKcl7T-8" value="否" style="text;html=1;align=center;verticalAlign=middle;resizable=0;points=[];autosize=1;strokeColor=none;fillColor=none;" vertex="1" parent="1">
          <mxGeometry x="240" y="190" width="40" height="30" as="geometry" />
        </mxCell>
        <mxCell id="phvqhUlvL6FENhMKcl7T-10" value="是" style="text;html=1;align=center;verticalAlign=middle;resizable=0;points=[];autosize=1;strokeColor=none;fillColor=none;" vertex="1" parent="1">
          <mxGeometry x="310" y="250" width="40" height="30" as="geometry" />
        </mxCell>
      </root>
    </mxGraphModel>
  </diagram>
</mxfile>
